HIERARCHY
ROOT Hips
{
	OFFSET	0.00	0.00	0.00
	CHANNELS 6 Xposition Yposition Zposition Zrotation Xrotation Yrotation
	JOINT LeftUpLeg
	{
		OFFSET	 0.126116	-0.065224	 0.014019
		CHANNELS 3 Zrotation Xrotation Yrotation
		JOINT LeftLeg
		{
			OFFSET	 0.000000	 0.569914	 0.000000
			CHANNELS 3 Zrotation Xrotation Yrotation
			JOINT LeftFoot
			{
				OFFSET	 0.000000	 0.544423	 0.000000
				CHANNELS 3 Zrotation Xrotation Yrotation
				JOINT LeftToeBase
				{
					OFFSET	 0.000000	 0.207117	 0.000000
					CHANNELS 3 Zrotation Xrotation Yrotation
					End Site
					{
						OFFSET	 0.000000	 0.207117	 0.000000
					}
				}
			}
		}
	}
	JOINT RightUpLeg
	{
		OFFSET	-0.124023	-0.065224	 0.008373
		CHANNELS 3 Zrotation Xrotation Yrotation
		JOINT RightLeg
		{
			OFFSET	 0.000000	 0.570047	 0.000000
			CHANNELS 3 Zrotation Xrotation Yrotation
			JOINT RightFoot
			{
				OFFSET	 0.000000	 0.544354	 0.000000
				CHANNELS 3 Zrotation Xrotation Yrotation
				JOINT RightToeBase
				{
					OFFSET	 0.000000	 0.207540	 0.000000
					CHANNELS 3 Zrotation Xrotation Yrotation
					End Site
					{
						OFFSET	 0.000000	 0.207540	 0.000000
					}
				}
			}
		}
	}
	JOINT Spine
	{
		OFFSET	 0.000184	 0.117403	 0.007763
		CHANNELS 3 Zrotation Xrotation Yrotation
		JOINT Spine1
		{
			OFFSET	 0.000000	 0.137269	 0.000000
			CHANNELS 3 Zrotation Xrotation Yrotation
			JOINT Spine2
			{
				OFFSET	 0.000000	 0.156879	 0.000000
				CHANNELS 3 Zrotation Xrotation Yrotation
				JOINT LeftShoulder
				{
					OFFSET	 0.080501	 0.160143	 0.002496
					CHANNELS 3 Zrotation Xrotation Yrotation
					JOINT LeftArm
					{
						OFFSET	 0.000000	 0.164363	 0.000000
						CHANNELS 3 Zrotation Xrotation Yrotation
						JOINT LeftForeArm
						{
							OFFSET	 0.000000	 0.364576	 0.000000
							CHANNELS 3 Zrotation Xrotation Yrotation
							JOINT LeftHand
							{
								OFFSET	 0.000000	 0.360812	 0.000000
								CHANNELS 3 Zrotation Xrotation Yrotation
								JOINT LeftHandIndex1
								{
									OFFSET	 0.000000	 0.086006	 0.000000
									CHANNELS 3 Zrotation Xrotation Yrotation
									JOINT LeftHandIndex2
									{
										OFFSET	 0.000000	 0.047237	 0.000000
										CHANNELS 3 Zrotation Xrotation Yrotation
										JOINT LeftHandIndex3
										{
											OFFSET	-0.004284	 0.038165	 0.000551
											CHANNELS 3 Zrotation Xrotation Yrotation
											End Site
											{
												OFFSET	-0.004284	 0.038165	 0.000551
											}
										}
									}
								}
							}
						}
					}
				}
				JOINT Neck
				{
					OFFSET	 0.000000	 0.176489	 0.000000
					CHANNELS 3 Zrotation Xrotation Yrotation
					JOINT Head
					{
						OFFSET	 0.000000	 0.077941	 0.001747
						CHANNELS 3 Zrotation Xrotation Yrotation
						End Site
						{
							OFFSET	 0.000000	 0.077941	 0.001747
						}
					}
				}
				JOINT RightShoulder
				{
					OFFSET	-0.080363	 0.159706	-0.000306
					CHANNELS 3 Zrotation Xrotation Yrotation
					JOINT RightArm
					{
						OFFSET	 0.000000	 0.164196	 0.000000
						CHANNELS 3 Zrotation Xrotation Yrotation
						JOINT RightForeArm
						{
							OFFSET	 0.000000	 0.365611	 0.000000
							CHANNELS 3 Zrotation Xrotation Yrotation
							JOINT RightHand
							{
								OFFSET	 0.000000	 0.360648	 0.000000
								CHANNELS 3 Zrotation Xrotation Yrotation
								JOINT RightHandIndex1
								{
									OFFSET	 0.000000	 0.069977	 0.000000
									CHANNELS 3 Zrotation Xrotation Yrotation
									JOINT RightHandIndex2
									{
										OFFSET	 0.000000	 0.052305	 0.000000
										CHANNELS 3 Zrotation Xrotation Yrotation
										JOINT RightHandIndex3
										{
											OFFSET	 0.009002	 0.042196	 0.000782
											CHANNELS 3 Zrotation Xrotation Yrotation
											End Site
											{
												OFFSET	 0.009002	 0.042196	 0.000782
											}
										}
									}
								}
							}
						}
					}
				}
			}
		}
	}
}
MOTION
Frames:    13
Frame Time: 0.03333334
 0.001653	 1.271748	 0.064730	 0.150174	-0.775475	 179.972700	-175.440000	 2.078365	-25.109040	 2.315087	-10.795430	-0.038677	-4.802021	 69.301800	 4.360966	 1.292262	 28.425850	-2.713146	 175.656400	 2.499771	 25.127290	-2.333200	-11.200660	 0.037428	 4.923338	 69.430150	-4.573901	-1.288183	 28.361890	 2.710176	 0.843113	 1.745363	-24.043270	-0.156732	 3.590272	 0.001594	 0.075314	-4.671245	 0.039140	-101.478000	 1.740675	 90.353400	 57.749930	 40.219330	-47.498810	 10.361050	 3.825428	-45.570450	-27.141590	 8.642457	-0.655157	-6.580301	 5.266122	 0.000000	 0.000000	 0.000000	 0.000000	 0.000000	 0.000000	 0.000000	 0.089846	-3.783161	 0.005928	 0.000015	 1.263154	-0.001370	 101.796200	-0.213307	-89.955470	-42.765460	 44.439250	 31.953170	-86.124350	 49.850380	 97.267340	 17.647960	-51.812490	-32.787320	 15.208500	 5.323790	 0.000000	 0.000000	 0.000000	 0.000000	 0.000000	 0.000000	 0.000000
 0.001653	 1.271748	 0.064730	 0.150164	-0.775481	 179.972700	-175.440000	 2.078330	-25.109010	 2.315066	-10.795340	-0.038678	-4.801941	 69.301770	 4.360886	 1.292262	 28.425850	-2.713146	 175.656400	 2.499833	 25.127310	-2.333222	-11.200760	 0.037426	 4.923389	 69.430170	-4.573944	-1.288183	 28.361890	 2.710176	 0.568732	 1.852981	-15.321620	-0.156773	 3.590272	 0.001595	 0.075349	-4.671248	 0.039143	-101.478000	 1.740668	 90.353370	 57.412110	 40.050550	-47.106170	 10.260800	 3.823750	-45.024230	-27.122230	 8.697791	-0.661817	-6.580301	 5.266122	 0.000000	 0.000000	 0.000000	 0.000000	 0.000000	 0.000000	 0.000000	 0.089846	-3.783161	 0.005928	 0.000015	 1.263154	-0.001370	 101.796200	-0.213304	-89.955450	-54.957820	 41.650420	 41.930480	-82.670020	 49.779460	 93.455870	 24.669940	-53.136760	-31.772640	 15.208500	 5.323790	 0.000000	 0.000000	 0.000000	 0.000000	 0.000000	 0.000000	 0.000000
 0.001653	 1.271748	 0.064730	 0.150202	-0.775477	 179.972700	-175.440000	 2.078417	-25.109110	 2.315107	-10.795520	-0.038677	-4.802217	 69.301840	 4.361169	 1.292262	 28.425850	-2.713146	 175.656400	 2.499778	 25.127300	-2.333201	-11.200660	 0.037436	 4.923381	 69.430150	-4.573947	-1.288183	 28.361890	 2.710176	 0.182820	 1.929635	-3.667348	-0.156732	 3.590268	 0.001594	 0.075314	-4.671241	 0.039143	-101.478000	 1.740669	 90.353390	 57.020840	 39.852950	-46.650860	 9.845324	 3.817922	-42.756590	-27.099940	 8.754647	-0.669882	-6.580301	 5.266122	 0.000000	 0.000000	 0.000000	 0.000000	 0.000000	 0.000000	 0.000000	 0.089846	-3.783161	 0.005928	 0.000015	 1.263154	-0.001370	 101.796200	-0.213313	-89.955460	-68.808900	 36.609090	 52.136120	-72.898610	 49.001900	 82.636760	 30.270270	-52.394290	-32.136100	 15.208500	 5.323790	 0.000000	 0.000000	 0.000000	 0.000000	 0.000000	 0.000000	 0.000000
 0.001653	 1.271748	 0.064730	 0.150159	-0.775477	 179.972700	-175.440000	 2.078273	-25.109110	 2.315053	-10.795290	-0.038684	-4.802175	 69.301720	 4.361145	 1.292262	 28.425850	-2.713146	 175.656400	 2.499829	 25.127300	-2.333224	-11.200760	 0.037425	 4.923384	 69.430190	-4.573935	-1.288183	 28.361890	 2.710176	-0.321069	 1.911505	 11.280880	-0.156763	 3.590096	 0.001595	 0.075335	-4.671101	 0.039089	-101.478000	 1.740674	 90.353390	 56.560360	 39.616750	-46.107980	 8.894912	 3.802657	-37.572960	-27.074860	 8.802072	-0.683878	-6.580301	 5.266122	 0.000000	 0.000000	 0.000000	 0.000000	 0.000000	 0.000000	 0.000000	 0.089846	-3.783161	 0.005928	 0.000015	 1.263154	-0.001370	 101.796200	-0.213321	-89.955440	-84.385770	 28.657440	 61.174000	-54.009360	 44.596430	 61.748000	 31.167390	-48.709110	-36.703390	 15.208500	 5.323790	 0.000000	 0.000000	 0.000000	 0.000000	 0.000000	 0.000000	 0.000000
 0.001653	 1.271748	 0.064730	 0.150166	-0.775479	 179.972700	-175.440000	 2.078318	-25.109120	 2.315073	-10.795380	-0.038681	-4.802237	 69.301780	 4.361202	 1.292262	 28.425850	-2.713146	 175.656400	 2.499779	 25.127320	-2.333201	-11.200660	 0.037429	 4.923370	 69.430130	-4.573938	-1.288183	 28.361890	 2.710176	-0.706656	 1.804907	 23.129970	-0.156730	 3.590101	 0.001594	 0.075319	-4.671105	 0.039074	-101.478000	 1.740669	 90.353390	 56.193950	 39.425940	-45.669470	 7.703747	 3.781684	-31.076350	-27.058960	 8.808369	-0.698562	-6.580301	 5.266122	 0.000000	 0.000000	 0.000000	 0.000000	 0.000000	 0.000000	 0.000000	 0.089846	-3.783161	 0.005928	 0.000015	 1.263154	-0.001370	 101.796200	-0.213312	-89.955440	-97.594730	 21.186490	 66.030700	-34.659850	 34.584060	 40.845720	 26.393630	-43.137910	-44.062100	 15.208500	 5.323790	 0.000000	 0.000000	 0.000000	 0.000000	 0.000000	 0.000000	 0.000000
 0.001653	 1.271748	 0.064730	 0.150202	-0.775477	 179.972700	-175.440000	 2.078417	-25.109110	 2.315107	-10.795520	-0.038677	-4.802217	 69.301840	 4.361169	 1.292262	 28.425850	-2.713146	 175.656400	 2.499778	 25.127300	-2.333201	-11.200660	 0.037436	 4.923381	 69.430150	-4.573947	-1.288183	 28.361890	 2.710176	-0.990365	 1.666240	 32.477990	-0.156732	 3.590268	 0.001594	 0.075314	-4.671241	 0.039143	-101.478000	 1.740669	 90.353390	 55.868200	 39.253950	-45.266940	 6.200861	 3.753922	-22.878750	-27.051010	 8.769208	-0.720075	-6.580301	 5.266122	 0.000000	 0.000000	 0.000000	 0.000000	 0.000000	 0.000000	 0.000000	 0.089846	-3.783161	 0.005928	 0.000015	 1.263154	-0.001370	 101.796200	-0.213313	-89.955460	-117.282600	 12.666400	 69.717750	-9.514562	 7.993938	 20.222820	 13.559790	-30.840150	-54.208330	 15.208500	 5.323790	 0.000000	 0.000000	 0.000000	 0.000000	 0.000000	 0.000000	 0.000000
 0.001653	 1.271748	 0.064730	 0.150202	-0.775477	 179.972700	-175.440000	 2.078417	-25.109110	 2.315107	-10.795520	-0.038677	-4.802217	 69.301840	 4.361169	 1.292262	 28.425850	-2.713146	 175.656400	 2.499778	 25.127300	-2.333201	-11.200660	 0.037436	 4.923381	 69.430150	-4.573947	-1.288183	 28.361890	 2.710176	-1.147314	 1.562338	 38.044910	-0.156732	 3.590268	 0.001594	 0.075314	-4.671241	 0.039143	-101.478000	 1.740669	 90.353390	 55.593780	 39.106660	-44.909560	 4.393458	 3.716461	-13.021370	-27.055650	 8.665315	-0.749355	-6.580301	 5.266122	 0.000000	 0.000000	 0.000000	 0.000000	 0.000000	 0.000000	 0.000000	 0.089846	-3.783161	 0.005928	 0.000015	 1.263154	-0.001370	 101.796200	-0.213313	-89.955460	-120.686500	 8.579391	 67.640560	-5.284431	 4.285350	 9.343356	 11.267570	-29.793490	-59.912920	 15.208500	 5.323790	 0.000000	 0.000000	 0.000000	 0.000000	 0.000000	 0.000000	 0.000000
 0.001653	 1.271748	 0.064730	 0.150202	-0.775477	 179.972700	-175.440000	 2.078417	-25.109110	 2.315107	-10.795520	-0.038677	-4.802217	 69.301840	 4.361169	 1.292262	 28.425850	-2.713146	 175.656400	 2.499732	 25.127340	-2.333192	-11.200610	 0.037433	 4.923494	 69.430130	-4.574067	-1.288183	 28.361890	 2.710176	-1.164624	 1.549478	 38.682450	-0.156732	 3.590268	 0.001594	 0.075314	-4.671241	 0.039143	-101.478000	 1.740669	 90.353390	 55.412260	 39.007340	-44.648710	 2.590294	 3.675511	-3.186687	-27.074890	 8.499545	-0.783579	-6.580301	 5.266122	 0.000000	 0.000000	 0.000000	 0.000000	 0.000000	 0.000000	 0.000000	 0.089846	-3.783161	 0.005928	 0.000015	 1.263154	-0.001370	 101.796200	-0.213313	-89.955460	-121.508400	 6.365366	 65.455020	-3.391772	 3.992254	-0.950126	 9.103384	-30.543810	-65.222490	 15.208500	 5.323790	 0.000000	 0.000000	 0.000000	 0.000000	 0.000000	 0.000000	 0.000000
 0.001653	 1.271748	 0.064730	 0.150202	-0.775477	 179.972700	-175.440000	 2.078417	-25.109110	 2.315107	-10.795520	-0.038677	-4.802217	 69.301840	 4.361169	 1.292262	 28.425850	-2.713146	 175.656400	 2.499778	 25.127300	-2.333201	-11.200660	 0.037436	 4.923381	 69.430150	-4.573947	-1.288183	 28.361890	 2.710176	-1.067308	 1.618042	 35.162470	-0.156732	 3.590268	 0.001594	 0.075314	-4.671241	 0.039143	-101.478000	 1.740669	 90.353390	 55.314300	 38.951730	-44.472820	 2.662007	 3.677529	 6.259007	-27.109560	 8.269228	-0.824207	-6.580301	 5.266122	 0.000000	 0.000000	 0.000000	 0.000000	 0.000000	 0.000000	 0.000000	 0.089846	-3.783161	 0.005928	 0.000015	 1.263154	-0.001370	 101.796200	-0.213313	-89.955460	-121.922500	 5.203886	 63.550800	-3.415066	 3.933359	-10.806590	 5.892041	-31.594910	-70.632760	 15.208500	 5.323790	 0.000000	 0.000000	 0.000000	 0.000000	 0.000000	 0.000000	 0.000000
 0.001653	 1.271748	 0.064730	 0.150174	-0.775475	 179.972700	-175.440000	 2.078323	-25.109010	 2.315066	-10.795340	-0.038680	-4.801933	 69.301770	 4.360878	 1.292262	 28.425850	-2.713146	 175.656400	 2.499738	 25.127290	-2.333182	-11.200570	 0.037429	 4.923311	 69.430100	-4.573884	-1.288183	 28.361890	 2.710176	-0.803476	 1.763956	 26.239020	-0.156732	 3.590272	 0.001594	 0.075314	-4.671245	 0.039140	-101.478000	 1.740675	 90.353400	 55.290840	 38.937140	-44.405360	 4.697503	 3.723136	 17.097550	-27.135800	 8.111685	-0.849616	-6.580301	 5.266122	 0.000000	 0.000000	 0.000000	 0.000000	 0.000000	 0.000000	 0.000000	 0.089846	-3.783161	 0.005928	 0.000015	 1.263154	-0.001370	 101.796200	-0.213307	-89.955470	-122.025900	 4.907189	 62.553050	-5.426703	 4.131685	-21.875460	 3.644814	-32.350290	-73.934520	 15.208500	 5.323790	 0.000000	 0.000000	 0.000000	 0.000000	 0.000000	 0.000000	 0.000000
 0.001653	 1.271748	 0.064730	 0.150166	-0.775479	 179.972700	-175.440000	 2.078370	-25.109030	 2.315087	-10.795430	-0.038678	-4.802021	 69.301800	 4.360965	 1.292262	 28.425850	-2.713146	 175.656400	 2.499779	 25.127310	-2.333200	-11.200660	 0.037431	 4.923360	 69.430140	-4.573926	-1.288183	 28.361890	 2.710176	 1.262013	 1.471245	-38.885730	-0.156719	 3.590272	 0.001594	 0.075315	-4.671247	 0.039136	-101.478000	 1.740664	 90.353380	 58.652650	 40.661710	-48.551540	 10.032720	 3.820368	 45.496380	-27.184650	 8.515333	-0.635358	-6.580301	 5.266122	 0.000000	 0.000000	 0.000000	 0.000000	 0.000000	 0.000000	 0.000000	 0.089846	-3.783161	 0.005928	 0.000015	 1.263154	-0.001370	 101.796200	-0.213305	-89.955460	-19.827500	 48.067320	 11.031890	-71.208210	 48.438030	-5.815577	 0.288131	-40.405970	-34.995060	 15.208500	 5.323790	 0.000000	 0.000000	 0.000000	 0.000000	 0.000000	 0.000000	 0.000000
 0.001653	 1.271748	 0.064730	 0.150202	-0.775477	 179.972700	-175.440000	 2.078417	-25.109110	 2.315107	-10.795520	-0.038677	-4.802217	 69.301840	 4.361169	 1.292262	 28.425850	-2.713146	 175.656400	 2.499869	 25.127290	-2.333229	-11.200790	 0.037425	 4.923331	 69.430200	-4.573889	-1.288183	 28.361890	 2.710176	 1.228646	 1.499225	-37.596940	-0.156732	 3.590268	 0.001594	 0.075314	-4.671241	 0.039143	-101.478000	 1.740669	 90.353390	 59.017150	 40.836980	-48.979570	 9.677764	 3.814922	 43.607170	-27.198150	 8.475285	-0.625579	-6.580301	 5.266122	 0.000000	 0.000000	 0.000000	 0.000000	 0.000000	 0.000000	 0.000000	 0.089846	-3.783161	 0.005928	 0.000015	 1.263154	-0.001370	 101.796200	-0.213313	-89.955460	-13.169890	 49.419880	 4.749006	-58.906120	 45.515530	-13.540150	-5.209687	-33.301530	-31.581920	 15.208500	 5.323790	 0.000000	 0.000000	 0.000000	 0.000000	 0.000000	 0.000000	 0.000000
 0.001653	 1.271748	 0.064730	 0.150202	-0.775477	 179.972700	-175.440000	 2.078417	-25.109110	 2.315107	-10.795520	-0.038677	-4.802217	 69.301840	 4.361169	 1.292262	 28.425850	-2.713146	 175.656400	 2.499778	 25.127300	-2.333201	-11.200660	 0.037436	 4.923381	 69.430150	-4.573947	-1.288183	 28.361890	 2.710176	 1.149038	 1.561070	-34.616350	-0.156732	 3.590268	 0.001594	 0.075314	-4.671241	 0.039143	-101.478000	 1.740669	 90.353390	 59.379990	 41.009580	-49.411320	 9.163830	 3.806474	 40.872930	-27.206510	 8.459104	-0.612146	-6.580301	 5.266122	 0.000000	 0.000000	 0.000000	 0.000000	 0.000000	 0.000000	 0.000000	 0.089846	-3.783161	 0.005928	 0.000015	 1.263154	-0.001370	 101.796200	-0.213313	-89.955460	-9.458004	 52.310310	 0.944926	-43.360260	 38.782220	-22.284460	-9.998742	-24.757630	-26.228210	 15.208500	 5.323790	 0.000000	 0.000000	 0.000000	 0.000000	 0.000000	 0.000000	 0.000000
